<svg width="23" height="16" viewBox="0 0 23 16" fill="none" xmlns="http://www.w3.org/2000/svg">
<path d="M21.6406 7.37381L13.2781 1.99256C13.1644 1.92007 13.0333 1.87957 12.8984 1.87537C12.7636 1.87115 12.6302 1.90337 12.5122 1.96863C12.3941 2.03389 12.2959 2.12976 12.2277 2.24617C12.1596 2.36257 12.1241 2.49519 12.125 2.63006V13.3738C12.1241 13.5087 12.1596 13.6413 12.2277 13.7577C12.2959 13.8741 12.3941 13.97 12.5122 14.0352C12.6302 14.1005 12.7636 14.1327 12.8984 14.1285C13.0333 14.1243 13.1644 14.0838 13.2781 14.0113L21.6406 8.63006C21.7472 8.56346 21.8351 8.47091 21.896 8.36104C21.9569 8.25116 21.9889 8.12756 21.9889 8.00194C21.9889 7.87631 21.9569 7.75271 21.896 7.64284C21.8351 7.53296 21.7472 7.44041 21.6406 7.37381ZM11.1406 7.37381L2.77814 1.99256C2.66441 1.92007 2.53324 1.87957 2.39842 1.87537C2.26362 1.87115 2.13016 1.90337 2.01213 1.96863C1.89409 2.03389 1.79584 2.12976 1.72771 2.24617C1.65958 2.36257 1.62411 2.49519 1.62502 2.63006V13.3738C1.62411 13.5087 1.65958 13.6413 1.72771 13.7577C1.79584 13.8741 1.89409 13.97 2.01213 14.0352C2.13016 14.1005 2.26362 14.1327 2.39842 14.1285C2.53324 14.1243 2.66441 14.0838 2.77814 14.0113L11.1406 8.63006C11.2472 8.56346 11.3351 8.47091 11.396 8.36104C11.4569 8.25116 11.4889 8.12756 11.4889 8.00194C11.4889 7.87631 11.4569 7.75271 11.396 7.64284C11.3351 7.53296 11.2472 7.44041 11.1406 7.37381Z" stroke="#FF8A2E" stroke-width="2" stroke-linecap="round" stroke-linejoin="round"/>
</svg>
