<svg width="23" height="16" viewBox="0 0 23 16" fill="none" xmlns="http://www.w3.org/2000/svg">
<path d="M1.35896 7.37381L9.72144 1.99256C9.83521 1.92007 9.96639 1.87957 10.1012 1.87537C10.236 1.87115 10.3694 1.90337 10.4875 1.96863C10.6055 2.03389 10.7038 2.12976 10.7719 2.24617C10.84 2.36257 10.8755 2.49519 10.8746 2.63006V13.3738C10.8755 13.5087 10.84 13.6413 10.7719 13.7577C10.7038 13.8741 10.6055 13.97 10.4875 14.0352C10.3694 14.1005 10.236 14.1327 10.1012 14.1285C9.96639 14.1243 9.83521 14.0838 9.72144 14.0113L1.35896 8.63006C1.25241 8.56346 1.16454 8.47091 1.10362 8.36104C1.04271 8.25116 1.01074 8.12756 1.01074 8.00194C1.01074 7.87631 1.04271 7.75271 1.10362 7.64284C1.16454 7.53296 1.25241 7.44041 1.35896 7.37381ZM11.8589 7.37381L20.2214 1.99256C20.3352 1.92007 20.4664 1.87957 20.6012 1.87537C20.736 1.87115 20.8694 1.90337 20.9875 1.96863C21.1055 2.03389 21.2038 2.12976 21.2719 2.24617C21.34 2.36257 21.3755 2.49519 21.3746 2.63006V13.3738C21.3755 13.5087 21.34 13.6413 21.2719 13.7577C21.2038 13.8741 21.1055 13.97 20.9875 14.0352C20.8694 14.1005 20.736 14.1327 20.6012 14.1285C20.4664 14.1243 20.3352 14.0838 20.2214 14.0113L11.8589 8.63006C11.7524 8.56346 11.6645 8.47091 11.6036 8.36104C11.5427 8.25116 11.5107 8.12756 11.5107 8.00194C11.5107 7.87631 11.5427 7.75271 11.6036 7.64284C11.6645 7.53296 11.7524 7.44041 11.8589 7.37381Z" stroke="#FF8A2E" stroke-width="2" stroke-linecap="round" stroke-linejoin="round"/>
</svg>
