<svg width="20" height="18" viewBox="0 0 20 18" fill="none" xmlns="http://www.w3.org/2000/svg">
<path d="M0.250316 9.00148C0.252799 7.21205 0.964751 5.49658 2.23008 4.23125C3.49542 2.96592 5.21087 2.25397 7.00031 2.25149H16.0003V0.751487C15.9999 0.603422 16.0432 0.458529 16.125 0.335072C16.2067 0.211614 16.3232 0.115111 16.4597 0.0577365C16.5982 0.00370646 16.7493 -0.0100036 16.8952 0.0182039C17.0412 0.0464039 17.1762 0.115367 17.2847 0.217112L19.5347 2.46711C19.6755 2.60931 19.7545 2.80136 19.7545 3.00149C19.7545 3.20162 19.6755 3.39367 19.5347 3.53586L17.2847 5.78585C17.1408 5.92348 16.9495 6.00065 16.7503 6.00148C16.6508 6.00103 16.5522 5.98198 16.4597 5.94523C16.3232 5.88785 16.2067 5.79133 16.125 5.66788C16.0432 5.54443 15.9999 5.39953 16.0003 5.25148V3.75149H7.00031C5.60793 3.75149 4.27257 4.30461 3.288 5.2892C2.30344 6.27373 1.75032 7.6091 1.75032 9.00148C1.75032 9.20038 1.6713 9.39118 1.53065 9.5318C1.38999 9.6725 1.19923 9.75148 1.00032 9.75148C0.801401 9.75148 0.610639 9.6725 0.469984 9.5318C0.329336 9.39118 0.250316 9.20038 0.250316 9.00148ZM19.0003 8.25148C18.8014 8.25148 18.6106 8.33053 18.47 8.47115C18.3294 8.61178 18.2503 8.80258 18.2503 9.00148C18.2503 10.3939 17.6972 11.7292 16.7127 12.7138C15.7281 13.6984 14.3927 14.2515 13.0003 14.2515H4.00032V12.7515C4.00078 12.6034 3.9574 12.4585 3.87565 12.3351C3.79391 12.2116 3.67744 12.1151 3.54094 12.0577C3.40241 12.0037 3.25141 11.99 3.10541 12.0182C2.95941 12.0464 2.82438 12.1154 2.71594 12.2171L0.465941 14.4671C0.325106 14.6093 0.246094 14.8014 0.246094 15.0015C0.246094 15.2017 0.325106 15.3937 0.465941 15.5359L2.71594 17.7859C2.85991 17.9235 3.05116 18.0007 3.25032 18.0015C3.34986 18.001 3.44843 17.982 3.54094 17.9452C3.67744 17.8879 3.79391 17.7913 3.87565 17.6679C3.9574 17.5444 4.00078 17.3995 4.00032 17.2515V15.7515H13.0003C14.7897 15.749 16.5052 15.037 17.7705 13.7717C19.0359 12.5064 19.7478 10.7909 19.7503 9.00148C19.7503 8.80258 19.6713 8.61178 19.5306 8.47115C19.39 8.33053 19.1992 8.25148 19.0003 8.25148Z" fill="white"/>
</svg>
