<svg width="32" height="32" viewBox="0 0 32 32" fill="none" xmlns="http://www.w3.org/2000/svg">
<rect width="32" height="32" rx="8" fill="#0A0A0A"/>
<path d="M22.5402 12.9983L12.8802 7.45832C12.3575 7.15648 11.7642 6.99836 11.1606 7.00001C10.557 7.00167 9.96459 7.16305 9.44354 7.46776C8.92249 7.77246 8.49137 8.20964 8.19396 8.73489C7.89655 9.26014 7.74345 9.85475 7.75021 10.4583V21.5783C7.75021 22.4854 8.11053 23.3552 8.75191 23.9966C9.39328 24.638 10.2632 24.9983 11.1702 24.9983C11.7707 24.9973 12.3603 24.8387 12.8802 24.5383L22.5402 18.9983C23.0593 18.6979 23.4902 18.2663 23.7898 17.7468C24.0894 17.2272 24.2471 16.638 24.2471 16.0383C24.2471 15.4386 24.0894 14.8494 23.7898 14.3299C23.4902 13.8103 23.0593 13.3787 22.5402 13.0783V12.9983ZM21.5402 17.1883L11.8802 22.8083C11.6637 22.931 11.4191 22.9955 11.1702 22.9955C10.9213 22.9955 10.6767 22.931 10.4602 22.8083C10.2443 22.6837 10.065 22.5044 9.9404 22.2885C9.81576 22.0725 9.75017 21.8276 9.75021 21.5783V10.4183C9.75017 10.169 9.81576 9.92409 9.9404 9.70818C10.065 9.49226 10.2443 9.31297 10.4602 9.18832C10.6776 9.06747 10.9215 9.00221 11.1702 8.99832C11.4187 9.00342 11.6624 9.06861 11.8802 9.18832L21.5402 14.7683C21.7562 14.8929 21.9356 15.0722 22.0603 15.2881C22.185 15.504 22.2506 15.749 22.2506 15.9983C22.2506 16.2477 22.185 16.4926 22.0603 16.7085C21.9356 16.9244 21.7562 17.1037 21.5402 17.2283V17.1883Z" fill="#FF8A2E"/>
<path d="M21.5402 17.1883L11.8802 22.8083C11.6637 22.931 11.4191 22.9955 11.1702 22.9955C10.9213 22.9955 10.6767 22.931 10.4602 22.8083C10.2443 22.6837 10.065 22.5044 9.9404 22.2885C9.81576 22.0725 9.75017 21.8276 9.75021 21.5783V10.4183C9.75017 10.169 9.81576 9.92409 9.9404 9.70818C10.065 9.49226 10.2443 9.31297 10.4602 9.18832C10.6776 9.06747 10.9215 9.00221 11.1702 8.99832C11.4187 9.00342 11.6624 9.06861 11.8802 9.18832L21.5402 14.7683C21.7562 14.8929 21.9356 15.0722 22.0603 15.2881C22.185 15.504 22.2506 15.749 22.2506 15.9983C22.2506 16.2477 22.185 16.4926 22.0603 16.7085C21.9356 16.9244 21.7562 17.1037 21.5402 17.2283V17.1883Z" fill="#FF8A2E"/>
</svg>
