<svg width="21" height="18" viewBox="0 0 21 18" fill="none" xmlns="http://www.w3.org/2000/svg">
<path d="M20.2844 13.7171C20.4252 13.8593 20.5042 14.0514 20.5042 14.2515C20.5042 14.4517 20.4252 14.6437 20.2844 14.7859L18.0344 17.0359C17.8904 17.1735 17.6991 17.2507 17.5 17.2515C17.4005 17.251 17.3018 17.232 17.2094 17.1952C17.0729 17.1379 16.9564 17.0413 16.8747 16.9179C16.7929 16.7944 16.7495 16.6495 16.75 16.5015V15.0015C15.6896 14.9863 14.6475 14.7222 13.7079 14.2304C12.7683 13.7386 11.9574 13.033 11.3406 12.1702L7.43125 6.7046C6.94615 6.02518 6.30625 5.471 5.5645 5.0879C4.82274 4.7048 4.00046 4.5038 3.16562 4.50148H1C0.801085 4.50148 0.610323 4.42247 0.469668 4.28182C0.32902 4.14116 0.25 3.9504 0.25 3.75149C0.25 3.55258 0.32902 3.36181 0.469668 3.22116C0.610323 3.08051 0.801085 3.00149 1 3.00149H3.16562C4.24035 3.00338 5.29918 3.26115 6.2545 3.75349C7.20985 4.24583 8.03417 4.95853 8.65937 5.83273L12.5687 11.2984C13.0445 11.9674 13.6707 12.5154 14.3969 12.898C15.1232 13.2807 15.9292 13.4874 16.75 13.5015V12.0015C16.7495 11.8534 16.7929 11.7085 16.8747 11.5851C16.9564 11.4616 17.0729 11.3651 17.2094 11.3077C17.3479 11.2537 17.4989 11.24 17.6449 11.2682C17.7909 11.2964 17.9259 11.3654 18.0344 11.4671L20.2844 13.7171ZM11.4062 7.03273C11.4867 7.0904 11.5779 7.1315 11.6744 7.15378C11.7708 7.17605 11.8707 7.17898 11.9684 7.1624C12.066 7.14583 12.1593 7.11013 12.2431 7.05733C12.3268 7.00445 12.3993 6.9356 12.4562 6.8546L12.5687 6.7046C13.0445 6.03553 13.6707 5.48765 14.3969 5.10493C15.1232 4.72228 15.9292 4.51558 16.75 4.50148V6.00148C16.7495 6.14953 16.7929 6.29443 16.8747 6.41788C16.9564 6.54133 17.0729 6.63785 17.2094 6.69523C17.3018 6.73198 17.4005 6.75103 17.5 6.75148C17.6991 6.75065 17.8904 6.67348 18.0344 6.53585L20.2844 4.28586C20.4252 4.14367 20.5042 3.95162 20.5042 3.75149C20.5042 3.55136 20.4252 3.35931 20.2844 3.21711L18.0344 0.967112C17.9259 0.865367 17.7909 0.796404 17.6449 0.768204C17.4989 0.739996 17.3479 0.753706 17.2094 0.807736C17.0729 0.865111 16.9564 0.961614 16.8747 1.08507C16.7929 1.20853 16.7495 1.35342 16.75 1.50149V3.00149C15.6896 3.01665 14.6475 3.28077 13.7079 3.77256C12.7683 4.26434 11.9574 4.97 11.3406 5.83273L11.2375 5.98273C11.1794 6.06268 11.1376 6.15328 11.1147 6.24943C11.0917 6.3455 11.088 6.44525 11.1036 6.54283C11.1193 6.6404 11.1541 6.73393 11.206 6.818C11.258 6.90208 11.326 6.97505 11.4062 7.03273ZM8.59375 10.9702C8.51328 10.9126 8.42215 10.8715 8.32562 10.8492C8.22918 10.827 8.12927 10.8241 8.03162 10.8406C7.93405 10.8571 7.84067 10.8928 7.7569 10.9457C7.6732 10.9985 7.60075 11.0674 7.54375 11.1484L7.43125 11.2984C6.94615 11.9778 6.30625 12.532 5.5645 12.9151C4.82274 13.2982 4.00046 13.4992 3.16562 13.5015H1C0.801085 13.5015 0.610323 13.5805 0.469668 13.7212C0.32902 13.8618 0.25 14.0526 0.25 14.2515C0.25 14.4504 0.32902 14.6412 0.469668 14.7818C0.610323 14.9225 0.801085 15.0015 1 15.0015H3.16562C4.24035 14.9996 5.29918 14.7418 6.2545 14.2495C7.20985 13.7572 8.03417 13.0444 8.65937 12.1702L8.7625 12.0202C8.82063 11.9403 8.8624 11.8497 8.88535 11.7535C8.9083 11.6575 8.91205 11.5577 8.89637 11.4601C8.8807 11.3626 8.8459 11.2691 8.794 11.185C8.74203 11.1009 8.674 11.0279 8.59375 10.9702Z" fill="white"/>
</svg>
