<svg width="23" height="20" viewBox="0 0 23 20" fill="none" xmlns="http://www.w3.org/2000/svg">
<path d="M19.5219 5.22813C20.1495 5.85423 20.6474 6.598 20.9871 7.41685C21.3269 8.2357 21.5017 9.1135 21.5017 10C21.5017 10.8865 21.3269 11.7643 20.9871 12.5832C20.6474 13.402 20.1495 14.1458 19.5219 14.7719M6.5 6.25V13.75M16.8687 7.88125C17.1476 8.15913 17.3689 8.48927 17.52 8.85287C17.6709 9.21648 17.7487 9.60632 17.7487 10C17.7487 10.3937 17.6709 10.7835 17.52 11.1471C17.3689 11.5107 17.1476 11.8409 16.8687 12.1188M6.5 13.75H2C1.80108 13.75 1.61032 13.6709 1.46967 13.5303C1.32902 13.3897 1.25 13.1989 1.25 13V7C1.25 6.8011 1.32902 6.6103 1.46967 6.46968C1.61032 6.32905 1.80108 6.25 2 6.25H6.5L13.25 1V19L6.5 13.75Z" stroke="#FF8A2E" stroke-width="2" stroke-linecap="round" stroke-linejoin="round"/>
</svg>
