<svg width="74" height="22" viewBox="0 0 74 22" fill="none" xmlns="http://www.w3.org/2000/svg">
<line x1="1" y1="9" x2="0.999999" y2="21" stroke="#FF8A2E" stroke-width="2" stroke-linecap="round"/>
<line x1="5" y1="12" x2="5" y2="21" stroke="#FF8A2E" stroke-width="2" stroke-linecap="round"/>
<line x1="9" y1="1" x2="9" y2="21" stroke="#FF8A2E" stroke-width="2" stroke-linecap="round"/>
<line x1="13" y1="18" x2="13" y2="21" stroke="#FF8A2E" stroke-width="2" stroke-linecap="round"/>
<line x1="17" y1="7" x2="17" y2="21" stroke="#FF8A2E" stroke-width="2" stroke-linecap="round"/>
<line x1="21" y1="16" x2="21" y2="21" stroke="#FF8A2E" stroke-width="2" stroke-linecap="round"/>
<line x1="25" y1="12" x2="25" y2="21" stroke="#FF8A2E" stroke-width="2" stroke-linecap="round"/>
<line x1="29" y1="7" x2="29" y2="21" stroke="#FF8A2E" stroke-width="2" stroke-linecap="round"/>
<line x1="33" y1="10" x2="33" y2="21" stroke="#FF8A2E" stroke-width="2" stroke-linecap="round"/>
<line x1="37" y1="18" x2="37" y2="21" stroke="#FF8A2E" stroke-width="2" stroke-linecap="round"/>
<line x1="41" y1="1" x2="41" y2="21" stroke="#FF8A2E" stroke-width="2" stroke-linecap="round"/>
<line x1="45" y1="12" x2="45" y2="21" stroke="#FF8A2E" stroke-width="2" stroke-linecap="round"/>
<line x1="49" y1="5" x2="49" y2="21" stroke="#FF8A2E" stroke-width="2" stroke-linecap="round"/>
<line x1="53" y1="10" x2="53" y2="21" stroke="#FF8A2E" stroke-width="2" stroke-linecap="round"/>
<line x1="57" y1="18" x2="57" y2="21" stroke="#FF8A2E" stroke-width="2" stroke-linecap="round"/>
<line x1="61" y1="5" x2="61" y2="21" stroke="#FF8A2E" stroke-width="2" stroke-linecap="round"/>
<line x1="65" y1="16" x2="65" y2="21" stroke="#FF8A2E" stroke-width="2" stroke-linecap="round"/>
<line x1="69" y1="18" x2="69" y2="21" stroke="#FF8A2E" stroke-width="2" stroke-linecap="round"/>
<line x1="73" y1="9" x2="73" y2="21" stroke="#FF8A2E" stroke-width="2" stroke-linecap="round"/>
</svg>
